<svg width="214" height="214" viewBox="0 0 214 214" fill="none" xmlns="http://www.w3.org/2000/svg">
<rect x="11" y="11" width="192" height="192" rx="49" stroke="url(#paint0_linear_0_1)" stroke-width="22"/>
<path d="M156.155 82.46C159.968 82.46 163.175 83.8467 165.775 86.62C168.548 89.22 169.935 92.5133 169.935 96.5C169.935 98.7533 169.415 101.18 168.375 103.78C165.601 110.193 161.701 115.567 156.675 119.9C151.648 124.233 146.101 126.4 140.035 126.4C135.181 126.4 131.021 124.667 127.555 121.2C124.261 117.733 122.615 113.053 122.615 107.16C122.615 103.867 122.788 100.313 123.135 96.5C123.481 93.7267 123.655 91.82 123.655 90.78C123.655 89.3933 123.308 88.3533 122.615 87.66C122.095 86.9667 121.401 86.62 120.535 86.62C118.108 86.62 114.815 89.5667 110.655 95.46C106.495 101.18 102.335 108.807 98.1748 118.34C94.0148 127.873 90.6348 137.927 88.0348 148.5C86.1281 156.82 83.9614 162.367 81.5348 165.14C79.1081 167.913 75.1214 169.3 69.5748 169.3C62.9881 169.3 58.3081 165.833 55.5348 158.9C52.9348 151.967 51.6348 140.873 51.6348 125.62C51.6348 103.087 54.8414 81.68 61.2548 61.4C62.8148 56.3733 65.3281 52.7333 68.7948 50.48C72.4348 48.0533 77.4614 46.84 83.8748 46.84C87.3414 46.84 89.7681 47.2733 91.1548 48.14C92.5414 49.0067 93.2348 50.6533 93.2348 53.08C93.2348 55.8533 91.9348 62.0933 89.3348 71.8C87.6014 78.7333 86.2148 84.8 85.1748 90C84.1348 95.2 83.2681 101.613 82.5748 109.24C88.2948 94.3333 94.7081 82.2 101.815 72.84C108.921 63.48 115.855 56.8067 122.615 52.82C129.375 48.8333 135.528 46.84 141.075 46.84C146.101 46.84 149.915 48.3133 152.515 51.26C155.288 54.0333 156.675 58.1933 156.675 63.74C156.675 67.0333 155.721 73.2733 153.815 82.46H156.155Z" fill="url(#paint1_linear_0_1)"/>
<defs>
<linearGradient id="paint0_linear_0_1" x1="107" y1="0" x2="107" y2="214" gradientUnits="userSpaceOnUse">
<stop stop-color="#00989B"/>
<stop offset="0.940972" stop-color="#005E78"/>
</linearGradient>
<linearGradient id="paint1_linear_0_1" x1="103" y1="-61" x2="103" y2="175" gradientUnits="userSpaceOnUse">
<stop stop-color="#00989B"/>
<stop offset="0.946181" stop-color="#005E78"/>
</linearGradient>
</defs>
</svg>
